<svg id="Group_1557" data-name="Group 1557" xmlns="http://www.w3.org/2000/svg" xmlns:xlink="http://www.w3.org/1999/xlink" width="145.826" height="32.35" viewBox="0 0 145.826 32.35">
  <defs>
    <clipPath id="clip-path">
      <rect id="Rectangle_3859" data-name="Rectangle 3859" width="145.826" height="32.35" fill="none"/>
    </clipPath>
  </defs>
  <path id="Path_1907" data-name="Path 1907" d="M1017.577,96.586l6.823-17.76h6.848l-9.959,25.06h-7.575l-9.959-25.06h7Z" transform="translate(-913.214 -71.716)" fill="#fff"/>
  <path id="Path_1908" data-name="Path 1908" d="M1332.523,78.826l-6.823,17.76-6.823-17.76h-7l9.958,25.059h7.576l9.958-25.059Z" transform="translate(-1193.545 -71.716)" fill="#fff"/>
  <g id="Group_1556" data-name="Group 1556">
    <g id="Group_1555" data-name="Group 1555" clip-path="url(#clip-path)">
      <path id="Path_1909" data-name="Path 1909" d="M363.1,0h5.277V10.267h.057q2.293-3.614,7.973-3.614a12.625,12.625,0,0,1,8.776,3.327A12.393,12.393,0,0,1,389.14,19.5a12.392,12.392,0,0,1-3.957,9.522,12.621,12.621,0,0,1-8.776,3.327q-5.679,0-7.973-3.613h-.057v2.983H363.1Zm18.3,13.824a7.685,7.685,0,0,0-10.841,0,7.926,7.926,0,0,0-2.179,5.678,7.923,7.923,0,0,0,2.179,5.679,7.686,7.686,0,0,0,10.841,0,7.927,7.927,0,0,0,2.179-5.679,7.929,7.929,0,0,0-2.179-5.678" transform="translate(-330.347)" fill="#fff"/>
      <path id="Path_1910" data-name="Path 1910" d="M689.056,77.778a14.27,14.27,0,0,1,19.846,0,12.749,12.749,0,0,1,0,17.667,14.27,14.27,0,0,1-19.846,0,12.749,12.749,0,0,1,0-17.667M693.3,92.233a8.181,8.181,0,1,0-2.237-5.621,7.71,7.71,0,0,0,2.237,5.621" transform="translate(-623.667 -67.109)" fill="#fff"/>
      <path id="Path_1911" data-name="Path 1911" d="M20.982,87.226a7.832,7.832,0,0,1-2.225,5.168,7.379,7.379,0,0,1-5.392,2.294,7.507,7.507,0,0,1-5.507-2.294,8.033,8.033,0,0,1,0-11.242,7.487,7.487,0,0,1,4.424-2.224V73.94A12.3,12.3,0,0,0,3.5,78.111,12.532,12.532,0,0,0,0,86.772a12.753,12.753,0,0,0,3.327,8.776,11.919,11.919,0,0,0,9.349,4.072q5.335,0,8.03-3.613h.115V98.99h5.22V87.226Z" transform="translate(0 -67.27)" fill="#fff"/>
      <path id="Path_1912" data-name="Path 1912" d="M166.857,86.563l-.034-6.607h-6.286V75.009h11.206l.06,11.528Z" transform="translate(-146.057 -68.243)" fill="#ffd425"/>
    </g>
  </g>
</svg>
